<svg id="Layer_1" data-name="Layer 1" xmlns="http://www.w3.org/2000/svg" viewBox="0 0 278.91 239.64">
  <defs>
    <style>
      .cls-1, .cls-2 {
        fill: #fff;
      }

      .cls-1 {
        fill-rule: evenodd;
      }
    </style>
  </defs>
  <g>
    <path class="cls-1" d="M288,65l-5.57-2.08c-36.59-13.68-42.36-15.33-43.86-15.53a40.71,40.71,0,0,0-70.51,4.28c-.85-.06-1.7-.11-2.56-.13h-.94c-.56,0-1.11,0-1.66,0a58.92,58.92,0,0,0-22.8,5A58.11,58.11,0,0,0,118.45,72.7L9.09,178.42l95.22-5.11-1.73,95.33L207.09,151.29a59.63,59.63,0,0,0,15.68-38.1c0-.11,0-.23,0-.34,0-.6,0-1.2,0-1.8s0-1,0-1.45c0-.24,0-.49,0-.74,0-.85-.07-1.69-.14-2.54a41,41,0,0,0,21-24.82,15.56,15.56,0,0,0,3.57-1ZM205.38,75.33c1,1.15,1.89,2.36,2.77,3.6.17.26.36.5.54.76.8,1.18,1.55,2.4,2.27,3.65l.67,1.19c.63,1.15,1.21,2.34,1.75,3.54a55.71,55.71,0,0,1,4.46,15.5A36.24,36.24,0,0,1,170.79,56.5,54.25,54.25,0,0,1,205,74.93Zm12.92,37.43v.11A54.82,54.82,0,0,1,185.56,161a54,54,0,0,1-19.88,4.54l-56.79,3,1-52.69v-.12a54.56,54.56,0,0,1,54-59.78c.78,0,1.57.07,2.35.11a40.68,40.68,0,0,0,52.1,52.1l0,.7c0,.29,0,.58,0,.87s0,.77,0,1.15C218.32,111.52,218.32,112.14,218.3,112.76ZM20.87,173.29,110.18,87c-.33.74-.7,1.46-1,2.23a58.88,58.88,0,0,0-3.83,26.87l-.95,52.76Zm87.94-.22L165.88,170a58.56,58.56,0,0,0,21.48-4.91c.82-.36,1.63-.74,2.42-1.13L107.3,256.6Zm113.31-71.51a59.51,59.51,0,0,0-4.22-14.47c-.14-.33-.33-.64-.48-1-.55-1.21-1.13-2.4-1.76-3.57-.29-.52-.58-1-.88-1.55-.74-1.29-1.51-2.55-2.35-3.78-.23-.34-.47-.66-.71-1-.91-1.28-1.86-2.53-2.87-3.74l-.51-.58q-1.69-2-3.57-3.81l-.1-.09a58.34,58.34,0,0,0-19.18-12.38,58.93,58.93,0,0,0-12.67-3.44,36.29,36.29,0,1,1,49.3,49.38Zm22.6-25a39.79,39.79,0,0,0-3.11-23.74c4.45,1.45,13.91,4.79,33.67,12.15L245.54,76.36C245.28,76.47,245,76.52,244.72,76.61Z" transform="translate(-9.09 -29)"/>
    <ellipse class="cls-2" cx="150.18" cy="84.88" rx="16.44" ry="16.53"/>
  </g>
</svg>
